<?xml version="1.0" encoding="UTF-8" standalone="no"?>
<svg
   height="1334px"
   version="1.1"
   width="1667px"
   id="svg4232"
   sodipodi:docname="looping_scan_rate.svg"
   inkscape:version="1.2 (dc2aedaf03, 2022-05-15)"
   inkscape:export-filename="looping_annotated.png"
   inkscape:export-xdpi="300"
   inkscape:export-ydpi="300"
   xmlns:inkscape="http://www.inkscape.org/namespaces/inkscape"
   xmlns:sodipodi="http://sodipodi.sourceforge.net/DTD/sodipodi-0.dtd"
   xmlns:xlink="http://www.w3.org/1999/xlink"
   xmlns="http://www.w3.org/2000/svg"
   xmlns:svg="http://www.w3.org/2000/svg">
  <sodipodi:namedview
     id="namedview4234"
     pagecolor="#ffffff"
     bordercolor="#000000"
     borderopacity="0.25"
     inkscape:showpageshadow="2"
     inkscape:pageopacity="0.0"
     inkscape:pagecheckerboard="0"
     inkscape:deskcolor="#d1d1d1"
     showgrid="false"
     inkscape:zoom="5.6611693"
     inkscape:cx="1092.9721"
     inkscape:cy="814.23108"
     inkscape:window-width="3456"
     inkscape:window-height="2036"
     inkscape:window-x="-12"
     inkscape:window-y="-12"
     inkscape:window-maximized="1"
     inkscape:current-layer="g7242" />
  <defs
     id="defs4228" />
  <image
     height="1334px"
     sodipodi:insensitive="true"
     width="1667px"
     x="0"
     xlink:href="looping_p0.png"
     y="0"
     id="image4230" />
  <g
     id="g5272">
    <text
       xml:space="preserve"
       style="font-size:80px;fill:#ffffff;stroke:#ffffff;stroke-width:2.4"
       x="486.62878"
       y="143.39062"
       id="text4359"><tspan
         sodipodi:role="line"
         id="tspan4357"
         x="486.62878"
         y="143.39062"
         style="font-size:80px;fill:#000000">height2: 100 m</tspan></text>
    <path
       style="fill:#ff0000;stroke:#ff0000;stroke-width:3;opacity:1;stroke-dasharray:none;stroke-opacity:1"
       d="M 492.1246,122.90624 276.28924,340.24046"
       id="path4517" />
  </g>
  <g
     id="g5416">
    <text
       xml:space="preserve"
       style="font-size:80px;fill:#ffffff;stroke:#ffffff;stroke-width:2.4"
       x="356.53973"
       y="1057.5997"
       id="text4359-2"><tspan
         sodipodi:role="line"
         id="tspan4357-4"
         x="356.53973"
         y="1057.5997"
         style="font-size:80px;fill:#000000">height1: -10 m</tspan></text>
    <path
       style="fill:#ff0000;stroke:#ff0000;stroke-width:1.11465;stroke-dasharray:none;stroke-opacity:1"
       d="m 354.40218,1034.8614 -82.21859,78.7622"
       id="path4517-5" />
  </g>
  <g
     id="g8000">
    <text
       xml:space="preserve"
       style="font-size:80px;fill:#000000;fill-opacity:1;stroke:none;stroke-width:2.4"
       x="1276.8063"
       y="1273.6122"
       id="text4359-2-2-9"><tspan
         sodipodi:role="line"
         id="tspan4357-4-9-6"
         x="1276.8063"
         y="1273.6122"
         style="font-size:80px;fill:#000000;fill-opacity:1;stroke:none">d2: 40 m</tspan></text>
    <path
       style="fill:#ff0000;stroke:#ff0000;stroke-width:1.40154;stroke-dasharray:none;stroke-opacity:1"
       d="m 1276.5119,1217.6401 -98.1814,-104.277"
       id="path4517-5-4-3" />
  </g>
  <g
     id="g7242">
    <path
       style="opacity:1;fill:none;stroke:#ff0101;stroke-width:3;stroke-dasharray:none;stroke-opacity:1"
       d="m 317.95551,937.61547 c 0,0 2.29226,-4.58806 4.41605,-4.59269 161.23061,-0.3517 200.2681,-3.11931 220.71417,-6.47956 60.72915,-9.98066 120.01353,-28.16641 173.86737,-57.95579 44.63089,-24.68768 85.97856,-57.15678 119.40891,-95.67702 34.94234,-40.26243 61.79551,-88.08486 81.43788,-137.645 15.15484,-38.23755 28.30827,-79.29838 26.97941,-120.40815 -1.36806,-42.32229 -14.62876,-85.19064 -35.72275,-121.90701 -19.19011,-33.40246 -46.65478,-63.70841 -79.4394,-83.93597 -21.6124,-13.33449 -47.67539,-24.50988 -72.94435,-21.98323 -35.25314,3.52497 -69.78768,24.04997 -93.67854,50.2117 -25.00955,27.38675 -33.25383,66.76789 -43.46685,102.42187 -12.35004,43.1144 -17.26141,88.20503 -20.98399,132.89862 -3.60116,43.23586 -9.32641,87.52369 -1.24905,130.15072 8.7286,46.06387 20.07488,96.73998 52.70979,130.40052 30.06592,31.01081 71.79493,47.08146 110.67078,67.52907 30.30884,15.9416 70.89497,22.01451 108.22291,26.52786 28.96093,3.50169 123.0297,2.49014 183.99355,-0.74422 32.4325,-1.72068 82.964,-9.64191 93.2322,-25.34463 25.9127,-39.62752 31.4921,-133.59752 52.9189,-203.16304 -0.3001,62.91595 -14.2257,119.64275 -6.2024,175.66409 2.693,12.97275 16.1364,22.06262 27.7288,28.47828 13.4896,7.46567 45.2155,9.74257 45.2155,9.74257"
       id="path5529"
       sodipodi:nodetypes="cssssssssssssssssssccsc" />
    <text
       xml:space="preserve"
       style="font-size:80px;opacity:1;fill:none;stroke:#ff0101;stroke-width:2.4;stroke-dasharray:none;stroke-opacity:1"
       x="1045.7203"
       y="570.9068"
       id="text6461"><tspan
         sodipodi:role="line"
         id="tspan6459"
         x="1045.7203"
         y="570.9068"
         style="fill:#000000;fill-opacity:1;stroke:none;stroke-width:2.4;stroke-dasharray:none">curve: blue</tspan></text>
  </g>
  <g
     id="g5468">
    <text
       xml:space="preserve"
       style="font-size:80px;fill:#ffffff;stroke:#ffffff;stroke-width:2.4"
       x="373.13907"
       y="1245.1886"
       id="text4359-2-2"><tspan
         sodipodi:role="line"
         id="tspan4357-4-9"
         x="373.13907"
         y="1245.1886"
         style="font-size:80px;fill:#000000">d1: -40 m</tspan></text>
    <path
       style="fill:#ff0000;stroke:#ff0000;stroke-width:1.40154;stroke-dasharray:none;stroke-opacity:1"
       d="m 373.55118,1219.5989 -98.18136,-104.277"
       id="path4517-5-4" />
  </g>
  <text
     xml:space="preserve"
     style="font-size:80px;opacity:1;fill:#000000;fill-opacity:1;stroke:none;stroke-width:2.4;stroke-dasharray:none;stroke-opacity:1"
     x="887.32312"
     y="264.798"
     id="text11336"><tspan
       sodipodi:role="line"
       id="tspan11334"
       x="887.32312"
       y="264.798">scan rate: 30 m/s</tspan></text>
</svg>
