<?xml version="1.0" encoding="UTF-8" standalone="no"?>
<svg
   xmlns:dc="http://purl.org/dc/elements/1.1/"
   xmlns:cc="http://creativecommons.org/ns#"
   xmlns:rdf="http://www.w3.org/1999/02/22-rdf-syntax-ns#"
   xmlns:svg="http://www.w3.org/2000/svg"
   xmlns="http://www.w3.org/2000/svg"
   xmlns:xlink="http://www.w3.org/1999/xlink"
   xmlns:sodipodi="http://sodipodi.sourceforge.net/DTD/sodipodi-0.dtd"
   xmlns:inkscape="http://www.inkscape.org/namespaces/inkscape"
   height="6601px"
   version="1.2"
   width="5100px"
   id="svg6"
   sodipodi:docname="Publication_example_p1_blue.svg"
   inkscape:version="0.92.2 (5c3e80d, 2017-08-06)">
  <metadata
     id="metadata10">
    <rdf:RDF>
      <cc:Work
         rdf:about="">
        <dc:format>image/svg+xml</dc:format>
        <dc:type
           rdf:resource="http://purl.org/dc/dcmitype/StillImage" />
      </cc:Work>
    </rdf:RDF>
  </metadata>
  <sodipodi:namedview
     pagecolor="#ffffff"
     bordercolor="#666666"
     borderopacity="1"
     objecttolerance="10"
     gridtolerance="10"
     guidetolerance="10"
     inkscape:pageopacity="0"
     inkscape:pageshadow="2"
     inkscape:window-width="1505"
     inkscape:window-height="904"
     id="namedview8"
     showgrid="false"
     inkscape:zoom="0.57203454"
     inkscape:cx="3181.9259"
     inkscape:cy="3339.4793"
     inkscape:window-x="99"
     inkscape:window-y="83"
     inkscape:window-maximized="0"
     inkscape:current-layer="layer1" />
  <defs
     id="defs2" />
  <image
     sodipodi:absref="F:\Github\echemdb\svgdigitizer\doc\files\Publication_example_p1.png"
     xlink:href="Publication_example_p1.png"
     sodipodi:insensitive="true"
     id="image4"
     y="0"
     x="0"
     width="5100"
     height="6601" />
  <g
     inkscape:groupmode="layer"
     id="layer1"
     inkscape:label="Layer 1">
    <g
       id="g828">
      <path
         sodipodi:nodetypes="ccsscssssssssssssscsssssssssssssssssssscc"
         inkscape:connector-curvature="0"
         id="path819"
         d="m 3033.0336,3330.2185 c 15.1607,-78.152 28.3818,-132.4752 51.1205,-194.1503 18.6639,-50.6229 38.7926,-98.2881 72.698,-140.2577 28.6001,-35.4024 61.6265,-62.3095 101.7985,-83.6989 25.7175,-13.6932 47.8262,-11.3865 77.7304,-27.5643 30.5711,-47.3724 60.6344,-92.1261 95.4421,-132.7531 19.3319,-22.5638 36.1101,-60.2614 65.8114,-59.437 20.5942,0.5716 33.8628,27.4568 42.4676,46.1759 12.1074,26.3389 17.5469,43.6757 33.4269,64.7692 16.476,21.8852 38.1569,41.5424 63.7077,51.4205 22.3435,8.6382 46.4917,8.9963 70.3629,6.9925 31.6879,-2.66 58.7697,-23.0929 90.4665,-20.5407 20.8211,1.6765 35.853,19.8288 56.5962,22.2888 10.5596,1.2523 25.2067,-1.134 35.8371,-0.874 13.7114,0.3354 22.1451,3.5644 35.8369,4.3703 36.2344,2.1328 72.0923,-11.052 108.3851,-10.4888 22.9091,0.3555 45.6113,4.7768 68.1777,8.7407 39.4051,6.9216 77.3851,21.6019 117.1258,26.2222 103.0359,11.9791 168.979,-0.1376 311.17,3.4963 3.5286,14.1701 -85.9455,18.2961 -100.5184,19.2296 -138.7627,8.8887 -314.7776,0.5568 -368.8589,7.8666 -26.1139,3.5297 -60.9855,12.5882 -73.8591,22.9445 -19.7961,15.9252 -33.7551,37.7705 -45.8888,60.0925 -9.0519,16.6526 -11.047,19.0929 -20.9596,33.1965 -3.3001,4.6954 -17.1492,15.1435 -25.9314,14.7184 -18.6341,-0.9019 -26.5475,-22.9544 -39.6862,-36.199 -33.5583,-33.8288 -39.1932,-36.3707 -75.7883,-53.5744 -33.6926,-15.8393 -72.3561,-22.6587 -109.2527,-27.6303 -50.8492,-6.8516 -118.367,-8.2133 -154.9295,8.0037 -27.4933,12.1944 -36.4735,42.9922 -52.4444,68.4777 -11.6315,18.5608 -10.022,53.2255 -31.4666,57.6888 -13.0092,2.7076 -19.8537,-16.3519 -25.9041,-28.1825 -13.6183,-26.628 -24.0432,-55.9793 -48.9663,-70.8437 -19.7947,-11.8058 -38.3673,-2.1239 -56.2406,8.1226 -25.1855,14.4385 -38.9552,42.104 -51.7202,68.1777 -20.5698,42.0158 -24.6959,88.2907 -31.9787,134.5012 -13.5535,85.9994 -14.331,175.6936 -22.938,262.328 -4.1801,42.0749 -3.2465,60.2409 -15.1152,120.922 -1.2754,6.5204 -14.5807,-0.8888 -16.3514,-7.2925 -36.2861,-131.2282 -42.9482,-295.0453 -71.162,-399.4075 -36.893,64.3265 -29.1686,62.7925 -58.2009,172.1485 z"
         style="fill:none;stroke:#000000;stroke-width:1px;stroke-linecap:butt;stroke-linejoin:miter;stroke-opacity:1" />
      <text
         id="text823"
         y="2755.0784"
         x="3692.0847"
         style="font-style:normal;font-variant:normal;font-weight:normal;font-stretch:normal;font-size:26.66666603px;line-height:1.25;font-family:sans-serif;-inkscape-font-specification:sans-serif;letter-spacing:0px;word-spacing:0px;fill:#000000;fill-opacity:1;stroke:none"
         xml:space="preserve"><tspan
           y="2755.0784"
           x="3692.0847"
           id="tspan821"
           sodipodi:role="line">curve: blue</tspan></text>
    </g>
    <text
       xml:space="preserve"
       style="font-style:normal;font-variant:normal;font-weight:normal;font-stretch:normal;font-size:26.66666603px;line-height:1.25;font-family:sans-serif;-inkscape-font-specification:sans-serif;letter-spacing:0px;word-spacing:0px;fill:#000000;fill-opacity:1;stroke:none"
       x="3699.0774"
       y="3234.0703"
       id="text832"><tspan
         sodipodi:role="line"
         id="tspan830"
         x="3699.0774"
         y="3234.0703">rate: 50 mV/s</tspan></text>
    <g
       id="g861">
      <text
         id="text836-9"
         y="4716.5903"
         x="4015.0745"
         style="font-style:normal;font-variant:normal;font-weight:normal;font-stretch:normal;font-size:26.66666603px;line-height:1.25;font-family:sans-serif;-inkscape-font-specification:sans-serif;letter-spacing:0px;word-spacing:0px;fill:#000000;fill-opacity:1;stroke:none"
         xml:space="preserve"><tspan
           y="4716.5903"
           x="4015.0745"
           id="tspan834-9"
           sodipodi:role="line">x2: 0.8 V vs. RHE</tspan></text>
      <path
         inkscape:connector-curvature="0"
         id="path856"
         d="m 4015.4918,4704.2614 377.5996,-126.7406"
         style="fill:none;stroke:#000000;stroke-width:1px;stroke-linecap:butt;stroke-linejoin:miter;stroke-opacity:1" />
    </g>
    <g
       id="g868">
      <text
         id="text836"
         y="4733.98"
         x="3160.6482"
         style="font-style:normal;font-variant:normal;font-weight:normal;font-stretch:normal;font-size:26.66666603px;line-height:1.25;font-family:sans-serif;-inkscape-font-specification:sans-serif;letter-spacing:0px;word-spacing:0px;fill:#000000;fill-opacity:1;stroke:none"
         xml:space="preserve"><tspan
           y="4733.98"
           x="3160.6482"
           id="tspan834"
           sodipodi:role="line">x1: 0 V vs. RHE</tspan></text>
      <path
         sodipodi:nodetypes="cc"
         inkscape:connector-curvature="0"
         id="path863"
         d="M 3160.6483,4728.7354 3177.802,4578.067"
         style="fill:none;stroke:#000000;stroke-width:1px;stroke-linecap:butt;stroke-linejoin:miter;stroke-opacity:1" />
    </g>
    <g
       id="g907">
      <text
         id="text872"
         y="3534.0278"
         x="2560.1643"
         style="font-style:normal;font-variant:normal;font-weight:normal;font-stretch:normal;font-size:26.66666603px;line-height:1.25;font-family:sans-serif;-inkscape-font-specification:sans-serif;letter-spacing:0px;word-spacing:0px;fill:#000000;fill-opacity:1;stroke:none"
         xml:space="preserve"><tspan
           y="3534.0278"
           x="2560.1643"
           id="tspan870"
           sodipodi:role="line">y1: -300 uA/cm</tspan></text>
      <path
         inkscape:connector-curvature="0"
         id="path884"
         d="m 2562.4893,3516.8656 384.4351,2.4722"
         style="fill:none;stroke:#000000;stroke-width:1px;stroke-linecap:butt;stroke-linejoin:miter;stroke-opacity:1" />
    </g>
    <g
       id="g914">
      <text
         id="text872-6"
         y="2725.8181"
         x="2602.3638"
         style="font-style:normal;font-variant:normal;font-weight:normal;font-stretch:normal;font-size:26.66666603px;line-height:1.25;font-family:sans-serif;-inkscape-font-specification:sans-serif;letter-spacing:0px;word-spacing:0px;fill:#000000;fill-opacity:1;stroke:none"
         xml:space="preserve"><tspan
           y="2725.8181"
           x="2602.3638"
           id="tspan870-9"
           sodipodi:role="line">y2: 100 uA / cm2</tspan></text>
      <path
         inkscape:connector-curvature="0"
         id="path909"
         d="m 2594.2489,2714.871 352.3665,0.5213"
         style="fill:none;stroke:#000000;stroke-width:1px;stroke-linecap:butt;stroke-linejoin:miter;stroke-opacity:1" />
    </g>
  </g>
</svg>
